<svg width="19" height="24" viewBox="0 0 19 24" fill="none" xmlns="http://www.w3.org/2000/svg">
<path d="M9.43777 23.8795L2.28408 21.8936L0.68988 4.01312H18.2071L16.6112 21.8908L9.43777 23.8795Z" fill="#264DE4"/>
<path d="M14.1755 19.5204L15.2876 7.06189H9.44849V20.8308L14.1755 19.5204Z" fill="#2965F1"/>
<path d="M4.93214 12.8662L5.10603 14.8067H9.44853V12.8662H4.93214ZM4.58264 8.9386L4.75903 10.8791H9.44853V8.9386H4.58264ZM9.44853 17.906L9.44003 17.9082L7.27889 17.3247L7.14072 15.777H5.19274L5.46458 18.8239L9.4396 19.9273L9.44853 19.9249V17.906Z" fill="#EBEBEB"/>
<path d="M4.58264 0.628906H7.15862V1.70618H5.65992V2.78346H7.15876V3.86067H4.58264V0.628906ZM7.67389 0.628906H10.2499V1.56566H8.75116V1.753H10.2499V3.90756H7.67395V2.92385H9.17272V2.73651H7.67382L7.67389 0.628906ZM10.7652 0.628906H13.3412V1.56566H11.8425V1.753H13.3412V3.90756H10.7652V2.92385H12.264V2.73651H10.7653L10.7652 0.628906Z" fill="black"/>
<path d="M13.9637 12.8651L14.3144 8.93353H9.44855V10.876H12.1856L12.0089 12.8651H9.44855V14.8075H11.8405L11.6149 17.3268L9.44849 17.9115V19.9323L13.4306 18.8287L13.4598 18.5005L13.9164 13.3867L13.9637 12.8651Z" fill="white"/>
</svg>
