<svg width="97" height="18" viewBox="0 0 97 18" fill="none" xmlns="http://www.w3.org/2000/svg">
<path opacity="0.98" d="M8.95848 0C4.01243 0 0 4.01305 0 8.95945C0 13.9059 4.01262 17.9189 8.95848 17.9189C13.9043 17.9189 17.917 13.9059 17.917 8.95945C17.917 4.01305 13.9043 0 8.95848 0ZM8.49167 16.1413V10.5215H5.36796L9.85611 1.77745V7.39724H12.8631L8.49167 16.1413Z" fill="#009688"/>
<path d="M25.0711 16.6398V1.16736H34.4026V3.02041H27.2366V7.68696H33.599V9.51784H27.2366V16.6402L25.0711 16.6398ZM39.7232 15.1439L40.0417 15.1427C40.4032 15.1402 40.7286 15.1332 41.0179 15.1217C41.4048 15.0919 41.7248 15.0472 41.9779 14.9876V11.527C41.829 11.4525 41.5834 11.3929 41.2411 11.3483C40.9137 11.2889 40.5119 11.2591 40.0356 11.2591C39.723 11.2591 39.3882 11.2814 39.0312 11.326C38.6971 11.3681 38.3726 11.4662 38.0712 11.6163C37.7898 11.7494 37.5447 11.9486 37.3568 12.1968C37.1633 12.4349 37.0665 12.7549 37.0665 13.1569C37.0665 13.9011 37.3046 14.4221 37.7808 14.7197C38.2572 15.0026 38.9047 15.1439 39.7232 15.1439ZM39.5446 4.73988C40.3259 4.73988 40.9895 4.83797 41.5353 5.03414L41.643 5.07468C42.1848 5.26921 42.6228 5.54799 42.957 5.91102L43.0271 5.99022C43.3844 6.37725 43.6375 6.84607 43.7862 7.39668C43.935 7.93251 44.0094 8.5279 44.0094 9.18285V16.4391L43.6076 16.5087C43.5003 16.5277 43.3813 16.5492 43.2505 16.5731L43.0076 16.6066C42.7564 16.64 42.4801 16.6734 42.1787 16.707C41.7771 16.7516 41.3381 16.7888 40.8616 16.8186C40.4004 16.8632 39.939 16.8855 39.4775 16.8855C38.8228 16.8855 38.22 16.8186 37.6694 16.6847C37.1187 16.5508 36.6424 16.3424 36.2405 16.0594C35.8389 15.7619 35.5263 15.375 35.3029 14.8985C35.0797 14.4223 34.9681 13.8493 34.9681 13.1794C34.9681 12.5394 35.0946 11.9886 35.3476 11.5272C35.6155 11.0658 35.9727 10.6937 36.4192 10.4108C36.8656 10.1281 37.3865 9.91972 37.9818 9.78557C38.5772 9.65167 39.2023 9.58473 39.8572 9.58473C40.0656 9.58473 40.2814 9.59963 40.5045 9.62944C40.7277 9.64435 40.9361 9.67409 41.1297 9.71868L41.3281 9.74843C41.4223 9.76334 41.5091 9.77824 41.5884 9.79315L41.8921 9.85511C41.9269 9.86268 41.9555 9.86932 41.9779 9.875V9.29445C41.9781 8.95648 41.9406 8.61953 41.8661 8.28986C41.7919 7.94755 41.658 7.64982 41.4645 7.39668C41.2709 7.12889 41.003 6.92054 40.6608 6.77161C40.3333 6.6079 39.9017 6.52605 39.3659 6.52605C38.7383 6.52605 38.1796 6.56982 37.6896 6.65736L37.3486 6.72102C36.9458 6.79934 36.636 6.88315 36.4192 6.97245L36.1736 5.25336C36.4414 5.13437 36.8879 5.02277 37.5131 4.91856C38.0756 4.81132 38.6803 4.75233 39.3273 4.74159L39.5446 4.73988ZM50.1371 15.1441C50.9855 15.1441 51.6105 15.0325 52.0123 14.8093C52.4291 14.5859 52.6375 14.2287 52.6375 13.7376C52.6375 13.2315 52.4365 12.8296 52.0346 12.532C51.6328 12.2341 50.9705 11.8992 50.0479 11.5272C49.6141 11.3539 49.1824 11.1752 48.7529 10.9914C48.3513 10.7979 48.0016 10.5746 47.7037 10.3216C47.406 10.0681 47.163 9.75669 46.9895 9.40624C46.8108 9.04902 46.7214 8.60988 46.7214 8.08883C46.7214 7.06188 47.101 6.25068 47.86 5.65523C48.6191 5.04513 49.6535 4.74001 50.9631 4.73988C51.2905 4.73988 51.6179 4.76218 51.9454 4.80677C52.2528 4.83364 52.5583 4.87837 52.8605 4.94073C53.103 4.979 53.3181 5.02277 53.5057 5.07203L53.7551 5.14024C53.9028 5.18218 54.0214 5.21988 54.1109 5.25336L53.7314 7.03953C53.5081 6.92054 53.1583 6.80148 52.682 6.68237C52.2058 6.54847 51.6329 6.48153 50.9631 6.48153C50.3826 6.48153 49.8766 6.60052 49.445 6.83849C49.0134 7.06182 48.7977 7.41911 48.7977 7.91035C48.7977 8.16323 48.8423 8.38649 48.9316 8.58014C49.0357 8.77353 49.1845 8.95214 49.3781 9.11597C49.5865 9.26477 49.8395 9.40618 50.1371 9.5402C50.4346 9.67422 50.7918 9.81557 51.2086 9.96424C51.7594 10.1727 52.2506 10.3811 52.682 10.5895C53.1136 10.783 53.4782 11.0137 53.7759 11.2817C54.0879 11.5485 54.3326 11.885 54.4903 12.2641C54.654 12.6361 54.7359 13.0974 54.7359 13.6482C54.7359 14.7198 54.334 15.531 53.5304 16.0818C52.7416 16.6325 51.6105 16.9079 50.1371 16.9079C49.1615 16.9079 48.3874 16.8273 47.8148 16.6661L47.3472 16.5306C46.9703 16.4189 46.7022 16.3288 46.5428 16.2605L46.9224 14.4743L47.2076 14.5785C47.4292 14.6581 47.7137 14.7573 48.0609 14.8762C48.5512 15.0443 49.193 15.1333 49.9865 15.1433L50.1371 15.1441ZM59.3193 5.02997H63.7173V6.77161H59.3193V12.1299C59.3193 12.7105 59.364 13.1943 59.4533 13.5813C59.5427 13.9534 59.6766 14.2511 59.8551 14.4743C60.0337 14.6827 60.2569 14.8316 60.5248 14.9209C60.7927 15.0102 61.1053 15.0548 61.4626 15.0548C62.0875 15.0548 62.586 14.9879 62.9581 14.854L63.762 14.5414L64.1636 16.2605C63.9552 16.3647 63.5907 16.4912 63.0699 16.64C62.5489 16.8037 61.9536 16.8855 61.2839 16.8855C60.4952 16.8855 59.8403 16.7888 59.3193 16.5954C58.8133 16.387 58.4041 16.0818 58.0916 15.6799C57.7791 15.2782 57.5558 14.787 57.4217 14.2064C57.3028 13.611 57.2433 12.9264 57.2433 12.1525V1.79243L59.3193 1.43508V5.02997ZM76.8293 16.64C76.5829 15.9881 76.3448 15.3331 76.1151 14.6751C75.8887 14.0113 75.6579 13.3489 75.4228 12.6881H68.4131L67.0066 16.64H64.7519L65.253 15.2676C65.5399 14.4851 65.8177 13.7342 66.0862 13.015L66.737 11.2771C67.1317 10.2263 67.5341 9.17845 67.9442 8.13355C68.3764 7.06436 68.8204 5.99996 69.276 4.94054L69.4399 4.56121C69.9291 3.41923 70.4427 2.28781 70.9801 1.16774H72.9671C73.4148 2.10055 73.8459 3.04125 74.2602 3.98938L74.5076 4.56121C75.0197 5.74323 75.5109 6.93419 75.9809 8.13355C76.4575 9.31314 76.919 10.4988 77.3653 11.6902L77.8613 13.015C78.3111 14.2214 78.7559 15.4298 79.1956 16.64H76.8293ZM74.7978 10.9021C74.3364 9.64618 73.8601 8.39576 73.369 7.15113C72.9229 5.96748 72.439 4.79846 71.9179 3.64586C71.3818 4.7979 70.883 5.96693 70.4222 7.15113C69.9463 8.39606 69.4849 9.64649 69.0381 10.9021H74.7978ZM85.382 1.01123C87.4977 1.01123 89.1337 1.40635 90.29 2.19658L90.3826 2.26157C91.5584 3.08009 92.1462 4.30807 92.1462 5.9455C92.1462 6.83856 91.9825 7.6051 91.6552 8.24515C91.3426 8.87041 90.8812 9.38388 90.271 9.78557C89.6756 10.1726 88.9464 10.4555 88.0832 10.6342C87.2201 10.8127 86.2452 10.902 85.1586 10.9021H83.4397V16.6396H81.2743V1.39075C81.8843 1.24169 82.5615 1.14494 83.3058 1.10047C83.9889 1.04679 84.6178 1.01729 85.1924 1.01199L85.382 1.01123ZM85.5605 2.909L85.1397 2.91089C84.42 2.91658 83.8534 2.9383 83.4397 2.97607V9.04889H85.0694C85.8136 9.04889 86.4833 9.00424 87.0785 8.91494C87.6739 8.81073 88.1725 8.64702 88.5743 8.42382C88.9911 8.18572 89.3111 7.86569 89.5342 7.46376C89.7575 7.06195 89.8692 6.54847 89.8692 5.92334C89.8692 5.36502 89.7646 4.89835 89.5553 4.52331L89.5119 4.44961C89.2887 4.06258 88.9762 3.75746 88.5743 3.53426C88.1874 3.29616 87.7335 3.13239 87.2125 3.04296C86.6916 2.95378 86.1409 2.90913 85.5605 2.909ZM94.8346 1.16774H97V16.6402H94.8346V1.16774Z" fill="#009688"/>
</svg>
