<svg width="18" height="19" viewBox="0 0 18 19" fill="none" xmlns="http://www.w3.org/2000/svg">
<path d="M6.39844 18.1406C8.07187 18.1406 9.42188 16.7906 9.42188 15.1172V12.0938H6.39844C4.725 12.0938 3.375 13.4438 3.375 15.1172C3.375 16.7906 4.725 18.1406 6.39844 18.1406Z" fill="#0ACF83"/>
<path d="M3.375 9.07031C3.375 7.39688 4.725 6.04688 6.39844 6.04688H9.42188V12.0938H6.39844C4.725 12.0938 3.375 10.7437 3.375 9.07031Z" fill="#A259FF"/>
<path d="M3.375 3.02344C3.375 1.35 4.725 0 6.39844 0H9.42188V6.04688H6.39844C4.725 6.04688 3.375 4.69687 3.375 3.02344Z" fill="#F24E1E"/>
<path d="M9.42188 0H12.4453C14.1187 0 15.4688 1.35 15.4688 3.02344C15.4688 4.69687 14.1187 6.04688 12.4453 6.04688H9.42188V0Z" fill="#FF7262"/>
<path d="M15.4688 9.07031C15.4688 10.7437 14.1187 12.0938 12.4453 12.0938C10.7719 12.0938 9.42188 10.7437 9.42188 9.07031C9.42188 7.39688 10.7719 6.04688 12.4453 6.04688C14.1187 6.04688 15.4688 7.39688 15.4688 9.07031Z" fill="#1ABCFE"/>
</svg>
