<svg width="24" height="24" viewBox="0 0 24 24" fill="none" xmlns="http://www.w3.org/2000/svg">
<mask id="mask0_2224_7" style="mask-type:luminance" maskUnits="userSpaceOnUse" x="0" y="0" width="24" height="24">
<path d="M0.777161 0H23.507V24H0.777161V0Z" fill="white"/>
</mask>
<g mask="url(#mask0_2224_7)">
<path d="M5.58832 0H6.61305V1.069H7.55066V0H8.57539V3.236H7.55066V2.153H6.61305V3.236H5.58926L5.58832 0ZM9.92213 1.073H9.02052V0H11.8494V1.073H10.9469V3.236H9.92213V1.073ZM12.2983 0H13.3666L14.0239 1.137L14.6802 0H15.7485V3.236H14.7285V1.632L14.0239 2.783H14.0059L13.3004 1.633V3.236H12.2983V0ZM16.2581 0H17.2838V2.167H18.7233V3.237H16.2581V0Z" fill="black"/>
<path fill-rule="evenodd" clip-rule="evenodd" d="M5.55612 22.072L3.61841 4.71698H20.6658L18.7271 22.07L12.1326 24L5.55612 22.072ZM9.47417 12.572L9.29044 10.392H17.0044L17.1843 8.26398H7.08849L7.63211 14.701H14.6187L14.3848 17.461L12.1364 18.103H12.1345L9.88994 17.463L9.74599 15.766H7.72114L8.00337 19.108L12.1326 20.318L16.2685 19.108L16.7723 13.144L16.8216 12.573L9.47417 12.572Z" fill="black"/>
</g>
</svg>
