<svg width="28" height="28" viewBox="0 0 28 28" fill="none" xmlns="http://www.w3.org/2000/svg">
<path d="M26.4773 27H1.52271C1.3843 26.9993 1.25176 26.944 1.15388 26.8461C1.05601 26.7482 1.00071 26.6157 1 26.4773V1.52271C1.00071 1.3843 1.05601 1.25176 1.15388 1.15388C1.25176 1.05601 1.3843 1.00071 1.52271 1H26.4773C26.6157 1.00071 26.7482 1.05601 26.8461 1.15388C26.944 1.25176 26.9993 1.3843 27 1.52271V26.4773C26.9993 26.6157 26.944 26.7482 26.8461 26.8461C26.7482 26.944 26.6157 26.9993 26.4773 27Z" fill="#FCEA2B" stroke="black" stroke-width="0.5" stroke-linejoin="round"/>
<path d="M23.6526 16.8925C23.4056 15.9299 22.3369 15.2079 21.0564 15.2079C19.5923 15.2079 18.406 16.152 18.406 17.3182C18.406 18.4833 19.5928 19.4286 21.0564 19.4286L21.0022 19.4356C22.4663 19.4356 23.6526 20.3808 23.6526 21.5459C23.6526 22.7121 22.4658 23.6563 21.0022 23.6563C19.7217 23.6563 18.653 22.9326 18.406 21.9706" fill="#FCEA2B"/>
<path d="M23.6526 16.8925C23.4056 15.9299 22.3369 15.2079 21.0564 15.2079C19.5923 15.2079 18.406 16.152 18.406 17.3182C18.406 18.4833 19.5928 19.4286 21.0564 19.4286L21.0022 19.4356C22.4663 19.4356 23.6526 20.3808 23.6526 21.5459C23.6526 22.7121 22.4658 23.6563 21.0022 23.6563C19.7217 23.6563 18.653 22.9326 18.406 21.9706" stroke="black" stroke-width="1.11325" stroke-miterlimit="10" stroke-linecap="round" stroke-linejoin="round"/>
<path d="M14.4008 15.2079V20.6408C14.4012 21.2242 14.2323 21.7951 13.9147 22.2844C13.5972 22.7738 13.1445 23.1605 12.6116 23.3978C12.0787 23.6351 11.4884 23.7127 10.9122 23.6213C10.3361 23.5299 9.79878 23.2733 9.36548 22.8828" fill="#FCEA2B"/>
<path d="M14.4008 15.2079V20.6408C14.4012 21.2242 14.2323 21.7951 13.9147 22.2844C13.5972 22.7738 13.1445 23.1605 12.6116 23.3978C12.0787 23.6351 11.4884 23.7127 10.9122 23.6213C10.3361 23.5299 9.79878 23.2733 9.36548 22.8828" stroke="black" stroke-width="1.114" stroke-miterlimit="10" stroke-linecap="round" stroke-linejoin="round"/>
</svg>
