<svg width="38" height="38" viewBox="0 0 38 38" fill="none" xmlns="http://www.w3.org/2000/svg">
<path d="M0 19C0 24.5198 8.50666 28.9949 19 28.9949C29.4933 28.9949 38 24.5198 38 19C38 13.4802 29.493 9.00513 19 9.00513C8.50695 9.00513 0 13.4802 0 19Z" fill="url(#paint0_radial_2313_104)"/>
<path d="M19 28.2527C29.0834 28.2527 37.2578 24.1098 37.2578 19C37.2578 13.8896 29.0834 9.74731 19 9.74731C8.91664 9.74731 0.742188 13.8896 0.742188 19C0.742188 24.1098 8.91664 28.2527 19 28.2527Z" fill="#777BB3"/>
<path d="M10.3229 20.1471C11.1521 20.1471 11.7708 19.9942 12.1623 19.6929C12.5501 19.3942 12.8176 18.8773 12.958 18.1565C13.0886 17.4826 13.0387 17.0124 12.8095 16.7582C12.5756 16.4988 12.0694 16.3673 11.3053 16.3673H9.98002L9.24585 20.1471H10.3229ZM5.98883 24.803C5.95843 24.8029 5.92841 24.7962 5.90093 24.7831C5.87345 24.7701 5.84919 24.7512 5.82989 24.7277C5.8106 24.7042 5.79674 24.6767 5.78932 24.6472C5.78189 24.6177 5.78109 24.587 5.78696 24.5572L7.73357 14.5412C7.74277 14.4944 7.76791 14.4522 7.80472 14.4218C7.84153 14.3914 7.88772 14.3748 7.93544 14.3746H12.1315C13.4502 14.3746 14.4317 14.7327 15.0489 15.4389C15.6687 16.1485 15.8605 17.1412 15.618 18.3884C15.5191 18.8963 15.3493 19.3681 15.1133 19.7908C14.8677 20.2257 14.5542 20.6186 14.1847 20.9546C13.7301 21.3797 13.2157 21.6884 12.6566 21.8698C12.1068 22.0491 11.4003 22.14 10.5577 22.14H8.85843L8.37333 24.6361C8.36417 24.6831 8.33897 24.7254 8.30203 24.7559C8.2651 24.7863 8.21873 24.803 8.17086 24.803H5.98883Z" fill="black"/>
<path d="M10.1502 16.5733H11.3053C12.2277 16.5733 12.548 16.7758 12.657 16.8966C12.8372 17.0967 12.8716 17.5192 12.7553 18.1174C12.6249 18.7874 12.3833 19.2627 12.0368 19.5293C11.6823 19.8024 11.1052 19.9408 10.323 19.9408H9.49586L10.1502 16.5733ZM12.1315 14.1686H7.93578C7.8401 14.1686 7.7474 14.2019 7.67353 14.2627C7.59966 14.3235 7.54923 14.4081 7.53085 14.502L5.58424 24.5183C5.57274 24.578 5.57456 24.6394 5.58957 24.6983C5.60458 24.7572 5.6324 24.812 5.67106 24.8589C5.70971 24.9058 5.75824 24.9435 5.81318 24.9695C5.86812 24.9954 5.92812 25.0089 5.98888 25.009H8.17091C8.26658 25.0089 8.35925 24.9756 8.43306 24.9147C8.50687 24.8539 8.55724 24.7692 8.57555 24.6753L9.02828 22.3461H10.5575C11.422 22.3461 12.1499 22.2516 12.7208 22.0658C13.3077 21.8752 13.8478 21.5519 14.3257 21.1048C14.7107 20.7544 15.0373 20.3448 15.2932 19.8915C15.5399 19.45 15.7175 18.9572 15.8202 18.4276C16.0755 17.1145 15.868 16.0633 15.2039 15.3033C14.546 14.5501 13.5123 14.1683 12.1315 14.1683V14.1686ZM8.99563 20.3528H10.323C11.2027 20.353 11.8578 20.1873 12.2883 19.8556C12.7187 19.5243 13.0095 18.971 13.1605 18.1957C13.3046 17.4512 13.2388 16.9259 12.9631 16.6199C12.687 16.314 12.1344 16.161 11.3053 16.161H9.81025L8.99563 20.3528ZM12.1318 14.5801C13.3941 14.5801 14.3147 14.9114 14.8936 15.574C15.4725 16.2367 15.6467 17.1615 15.4161 18.3486C15.3207 18.8379 15.1599 19.285 14.9337 19.6899C14.7071 20.0952 14.4111 20.466 14.0458 20.8023C13.6104 21.21 13.1262 21.5005 12.5935 21.6736C12.0609 21.847 11.3823 21.9336 10.5578 21.9334H8.68866L8.17121 24.5964H5.98917L7.93608 14.5801H12.1318Z" fill="white"/>
<path d="M20.6206 22.14C20.5902 22.14 20.5601 22.1333 20.5326 22.1204C20.5051 22.1074 20.4808 22.0885 20.4614 22.0651C20.442 22.0416 20.4281 22.0141 20.4206 21.9846C20.4132 21.9551 20.4123 21.9243 20.4181 21.8945L21.2791 17.4627C21.3613 17.0412 21.3411 16.739 21.2227 16.6107C21.1499 16.5326 20.932 16.4017 20.2875 16.4017H18.7271L17.6447 21.9735C17.6354 22.0204 17.6101 22.0626 17.5732 22.0929C17.5362 22.1233 17.4898 22.1398 17.442 22.1397H15.2778C15.2474 22.1397 15.2173 22.133 15.1898 22.1201C15.1623 22.1071 15.138 22.0883 15.1186 22.0649C15.0992 22.0414 15.0853 22.014 15.0777 21.9845C15.0702 21.9551 15.0693 21.9243 15.075 21.8945L17.0219 11.8782C17.0311 11.8313 17.0563 11.789 17.0933 11.7587C17.1302 11.7283 17.1765 11.7117 17.2244 11.7117H19.3886C19.419 11.7116 19.449 11.7183 19.4765 11.7313C19.504 11.7442 19.5284 11.7631 19.5477 11.7865C19.5671 11.8099 19.5811 11.8374 19.5886 11.8668C19.5961 11.8963 19.5971 11.927 19.5913 11.9569L19.1217 14.3746H20.7999C22.0786 14.3746 22.9454 14.5997 23.4504 15.0637C23.9649 15.5366 24.1258 16.2927 23.9278 17.3119L23.022 21.9735C23.0128 22.0203 22.9875 22.0625 22.9506 22.0928C22.9136 22.1232 22.8673 22.1397 22.8196 22.1397L20.6206 22.14Z" fill="black"/>
<path d="M19.3889 11.5054H17.2244C17.1287 11.5054 17.036 11.5387 16.9621 11.5996C16.8882 11.6604 16.8378 11.7451 16.8195 11.8391L14.8729 21.855C14.8613 21.9147 14.8631 21.9762 14.8781 22.0351C14.8931 22.094 14.9209 22.1489 14.9596 22.1958C14.9982 22.2427 15.0468 22.2805 15.1017 22.3065C15.1567 22.3325 15.2167 22.346 15.2775 22.3461H17.442C17.5377 22.346 17.6305 22.3127 17.7044 22.2519C17.7782 22.191 17.8286 22.1063 17.847 22.0124L18.897 16.6078H20.287C20.9306 16.6078 21.066 16.7452 21.071 16.7514C21.1102 16.793 21.1616 16.9875 21.0767 17.4236L20.2157 21.855C20.2042 21.9147 20.206 21.9763 20.221 22.0352C20.236 22.0941 20.2638 22.149 20.3025 22.1959C20.3412 22.2429 20.3898 22.2807 20.4448 22.3066C20.4998 22.3326 20.5598 22.346 20.6207 22.3461H22.8199C22.9156 22.346 23.0083 22.3126 23.0821 22.2518C23.1559 22.1909 23.2062 22.1063 23.2246 22.0124L24.1303 17.3514C24.3426 16.2572 24.1609 15.4366 23.59 14.912C23.0449 14.4115 22.1324 14.1683 20.8 14.1683H19.372L19.7939 11.9967C19.8055 11.937 19.8037 11.8754 19.7887 11.8164C19.7738 11.7575 19.7459 11.7025 19.7072 11.6556C19.6685 11.6086 19.6199 11.5708 19.5649 11.5448C19.5099 11.5189 19.4498 11.5054 19.3889 11.5054ZM19.3889 11.918L18.8715 14.5804H20.8C22.0134 14.5804 22.8503 14.7922 23.3106 15.2157C23.7714 15.6389 23.9097 16.3246 23.7257 17.2731L22.8196 21.9337H20.6207L21.4819 17.5019C21.5799 16.9979 21.5437 16.6541 21.3735 16.4706C21.2033 16.2873 20.8413 16.1957 20.2876 16.1957H18.5571L17.442 21.9334H15.2772L17.2241 11.9171H19.3889V11.918Z" fill="white"/>
<path d="M27.3529 20.1471C28.1821 20.1471 28.801 19.9942 29.1929 19.6929C29.58 19.3942 29.8478 18.8773 29.9882 18.1565C30.1189 17.4826 30.0693 17.0124 29.8398 16.7582C29.6059 16.4988 29.0997 16.3673 28.3355 16.3673H27.0106L26.2758 20.1471H27.3529ZM23.0197 24.803C22.9892 24.803 22.9592 24.7963 22.9316 24.7833C22.9041 24.7704 22.8797 24.7514 22.8604 24.7279C22.841 24.7044 22.8271 24.6769 22.8196 24.6474C22.8122 24.6178 22.8114 24.587 22.8172 24.5572L24.7638 14.5412C24.7731 14.4943 24.7983 14.452 24.8352 14.4216C24.8722 14.3912 24.9185 14.3746 24.9663 14.3746H29.162C30.4808 14.3746 31.4622 14.7327 32.0791 15.4389C32.6993 16.1485 32.8908 17.1412 32.6482 18.3884C32.5554 18.8796 32.3852 19.353 32.1439 19.7908C31.8982 20.2257 31.5848 20.6186 31.2152 20.9546C30.761 21.3797 30.2459 21.6884 29.6872 21.8698C29.1374 22.0491 28.4308 22.14 27.588 22.14H25.889L25.4042 24.6361C25.395 24.6831 25.3698 24.7255 25.3328 24.756C25.2958 24.7864 25.2493 24.803 25.2014 24.803H23.0197Z" fill="black"/>
<path d="M27.1804 16.5733H28.3356C29.258 16.5733 29.5783 16.7758 29.687 16.8966C29.8681 17.0967 29.9019 17.5192 29.7858 18.1174C29.6552 18.7874 29.4135 19.2627 29.0671 19.5293C28.7123 19.8024 28.1352 19.9408 27.3532 19.9408H26.5261L27.1804 16.5733ZM29.1618 14.1686H24.9661C24.8704 14.1687 24.7778 14.202 24.704 14.2628C24.6302 14.3236 24.5798 14.4082 24.5614 14.502L22.6145 24.5183C22.603 24.578 22.6048 24.6395 22.6199 24.6984C22.6349 24.7573 22.6627 24.8121 22.7014 24.859C22.7401 24.9059 22.7887 24.9436 22.8437 24.9696C22.8986 24.9955 22.9587 25.009 23.0194 25.009H25.2015C25.2971 25.0089 25.3898 24.9756 25.4636 24.9147C25.5374 24.8539 25.5878 24.7692 25.6061 24.6753L26.0589 22.3461H27.5878C28.452 22.3461 29.1802 22.2516 29.7508 22.0658C30.338 21.8752 30.878 21.5519 31.3563 21.1045C31.7411 20.7541 32.0676 20.3446 32.3235 19.8915C32.5705 19.45 32.7474 18.9572 32.8505 18.4276C33.1058 17.1145 32.8986 16.0633 32.2341 15.3033C31.5763 14.5501 30.5429 14.1683 29.1615 14.1683L29.1618 14.1686ZM26.0259 20.3528H27.3529C28.2327 20.353 28.888 20.1873 29.3188 19.8556C29.7493 19.5243 30.0398 18.971 30.1905 18.1957C30.3351 17.4512 30.2693 16.9259 29.993 16.6199C29.7167 16.314 29.1643 16.161 28.3356 16.161H26.8408L26.0259 20.3528ZM29.1618 14.5801C30.4241 14.5801 31.3447 14.9114 31.9236 15.574C32.5025 16.2367 32.6766 17.1615 32.4458 18.3486C32.3508 18.8379 32.1901 19.285 31.9637 19.6899C31.7373 20.0952 31.4412 20.466 31.0754 20.8023C30.64 21.21 30.1559 21.5005 29.6231 21.6736C29.0907 21.847 28.4123 21.9336 27.5878 21.9334H25.7189L25.2009 24.5964H23.0189L24.9658 14.5801H29.1618Z" fill="white"/>
<defs>
<radialGradient id="paint0_radial_2313_104" cx="0" cy="0" r="1" gradientUnits="userSpaceOnUse" gradientTransform="translate(11.4077 12.5189) scale(24.9498 24.9498)">
<stop stop-color="#AEB2D5"/>
<stop offset="0.3" stop-color="#AEB2D5"/>
<stop offset="0.75" stop-color="#484C89"/>
<stop offset="1" stop-color="#484C89"/>
</radialGradient>
</defs>
</svg>
