<svg width="18" height="18" viewBox="0 0 18 18" fill="none" xmlns="http://www.w3.org/2000/svg">
<path d="M13.1919 12.9532C13.3023 12.0345 13.2693 11.8996 13.9536 12.0486L14.1272 12.0638C14.6535 12.0877 15.3418 11.9791 15.7463 11.7912C16.6169 11.3872 17.133 10.7129 16.2747 10.89C14.3167 11.294 14.1821 10.6309 14.1821 10.6309C16.2497 7.56319 17.114 3.66886 16.3678 2.71557C14.333 0.115552 10.8107 1.34504 10.7518 1.37682L10.733 1.38033C10.3461 1.30004 9.91314 1.25208 9.42671 1.24421C8.54064 1.22958 7.86831 1.47652 7.35826 1.86324C7.35826 1.86324 1.07471 -0.725526 1.36707 5.11885C1.42923 6.36211 3.14907 14.5264 5.20051 12.0604C5.95032 11.1587 6.67482 10.3962 6.67482 10.3962C7.03454 10.6351 7.46542 10.7572 7.9171 10.7133L7.95212 10.6835C7.94115 10.7955 7.94593 10.905 7.96604 11.0347C7.43771 11.6251 7.59296 11.7288 6.53645 11.9462C5.46742 12.1664 6.09545 12.5586 6.50537 12.6611C7.00248 12.7854 8.15237 12.9615 8.92946 11.8739L8.89853 11.9979C9.10581 12.1639 9.09189 13.19 9.12114 13.9231C9.15053 14.6563 9.1996 15.3405 9.34909 15.7439C9.49857 16.1474 9.67492 17.1862 11.0634 16.8886C12.2239 16.6405 13.1111 16.2826 13.1919 12.9532Z" fill="black"/>
<path d="M10.6113 17.6142C9.99717 17.6142 9.59723 17.3767 9.35437 17.1473C8.98776 16.8014 8.84235 16.3557 8.75545 16.0895L8.7179 15.9784C8.54296 15.5062 8.48362 14.8263 8.44846 13.9508C8.44312 13.8193 8.43946 13.6839 8.43539 13.5403C8.43243 13.4352 8.42878 13.3035 8.42343 13.1657C8.20218 13.2711 7.96734 13.3454 7.72565 13.3862C7.29267 13.4601 6.8272 13.4362 6.3419 13.3149C5.99948 13.2292 5.6437 13.0518 5.44092 12.7777C4.84987 13.2953 4.2861 13.2251 3.97898 13.1226C3.43715 12.9419 2.95228 12.4341 2.49651 11.5705C2.17181 10.9553 1.85779 10.1538 1.56304 9.18794C1.04976 7.50606 0.723651 5.73461 0.694682 5.15299C0.603557 3.3326 1.09364 2.03069 2.15099 1.28383C3.81895 0.105675 6.34612 0.798534 7.26749 1.11311C7.88653 0.740034 8.61482 0.558487 9.43776 0.571565C9.87974 0.578737 10.3006 0.61755 10.6916 0.6873C11.0994 0.55905 11.9049 0.374972 12.827 0.386503C14.5259 0.406753 15.9337 1.06882 16.8979 2.30111C17.5861 3.1803 17.2458 5.02656 16.9819 6.04891C16.6103 7.48694 15.9594 9.01638 15.1598 10.3478C15.3769 10.3494 15.6915 10.3233 16.1387 10.231C17.021 10.0488 17.279 10.5219 17.349 10.7337C17.6296 11.5833 16.4101 12.2254 16.0297 12.4021C15.5423 12.6283 14.7476 12.7661 14.0968 12.7363L14.0684 12.7345L13.8974 12.7195L13.8805 12.862L13.8642 13.0014C13.8205 14.6888 13.5794 15.7574 13.0835 16.4635C12.5636 17.2037 11.841 17.4111 11.2046 17.5475C10.9874 17.5939 10.7902 17.6142 10.6113 17.6142ZM9.31893 11.473C9.71535 11.7902 9.75009 12.3872 9.78117 13.5027C9.7851 13.642 9.78876 13.7737 9.79368 13.8968C9.80859 14.2694 9.8436 15.142 9.98029 15.5107C9.99956 15.5629 10.0169 15.6158 10.0351 15.6719C10.1874 16.1382 10.2638 16.372 10.9223 16.2313C11.4751 16.1127 11.7593 16.0064 11.9818 15.6897C12.3051 15.2293 12.4859 14.3032 12.5191 12.937L13.1917 12.9533L12.5238 12.8732L12.5435 12.7064C12.6074 12.1565 12.6536 11.7594 13.021 11.4967C13.3159 11.2861 13.6519 11.3065 13.9195 11.3547C13.6254 11.1325 13.5442 10.8719 13.5225 10.765L13.4664 10.4887L13.624 10.2549C14.532 8.90767 15.2807 7.25196 15.6784 5.71211C16.0871 4.12994 15.9625 3.28971 15.8379 3.1308C14.1885 1.02325 11.3283 1.89344 11.0296 1.99216L10.9792 2.01944L10.726 2.06655L10.5964 2.03969C10.2389 1.96544 9.84178 1.92438 9.4161 1.91749C8.74729 1.90624 8.20771 2.0643 7.76531 2.39997L7.45832 2.63271L7.10212 2.48603C6.34106 2.17483 4.10568 1.54919 2.92612 2.38464C2.27137 2.84842 1.9731 3.75714 2.03948 5.08563C2.06142 5.52424 2.3594 7.1846 2.85103 8.79489C3.53039 11.0203 4.14773 11.7595 4.40549 11.8455C4.45049 11.8607 4.56721 11.77 4.68337 11.6305C5.1677 11.0499 5.66921 10.4839 6.18721 9.93311L6.57674 9.52319L7.0477 9.83608C7.23754 9.96222 7.44693 10.0338 7.66195 10.0473L8.78512 9.08936L8.62242 10.7499C8.61876 10.7871 8.61693 10.8379 8.63156 10.9321L8.68049 11.2468L8.46815 11.4842L8.44368 11.5118L9.06074 11.7965L9.31893 11.473Z" fill="black"/>
<path d="M16.2747 10.8901C14.3165 11.2941 14.1819 10.631 14.1819 10.631C16.2495 7.56315 17.1138 3.66868 16.3679 2.71567C14.333 0.115794 10.8105 1.34528 10.7517 1.3772L10.7328 1.38058C10.3459 1.30028 9.91292 1.25247 9.42622 1.24459C8.54014 1.23011 7.86809 1.4769 7.35804 1.86362C7.35804 1.86362 1.07436 -0.725002 1.36657 5.11923C1.42873 6.36264 3.14857 14.5269 5.20001 12.0609C5.94982 11.1592 6.67418 10.3967 6.67418 10.3967C7.03404 10.6357 7.46478 10.7577 7.91633 10.7139L7.95148 10.684C7.94051 10.796 7.94558 10.9055 7.96554 11.0352C7.43708 11.6257 7.59233 11.7293 6.53581 11.9467C5.46678 12.1669 6.09481 12.5591 6.50487 12.6617C7.00184 12.786 8.15187 12.962 8.92883 11.8744L8.89775 11.9985C9.10489 12.1644 9.25029 13.0773 9.22597 13.9049C9.20164 14.7325 9.18518 15.3008 9.34845 15.7446C9.51158 16.1884 9.67414 17.1868 11.063 16.8893C12.2234 16.6406 12.8247 15.9962 12.9085 14.9212C12.9679 14.1569 13.1022 14.27 13.1107 13.5867L13.2186 13.2632C13.3429 12.2273 13.2383 11.8931 13.9534 12.0485L14.127 12.0637C14.6532 12.0876 15.3419 11.9791 15.7462 11.7912C16.6167 11.3875 17.1329 10.713 16.2747 10.8901Z" fill="#336791"/>
<path d="M10.6814 17.1995C9.52381 17.1995 9.15706 16.2828 9.00701 15.9079C8.78735 15.3585 8.73996 13.2263 8.7889 11.4778C8.78963 11.4483 8.79618 11.4192 8.80819 11.3923C8.82019 11.3654 8.83741 11.3411 8.85884 11.3208C8.88028 11.3005 8.90551 11.2847 8.93309 11.2743C8.96067 11.2638 8.99004 11.2589 9.01953 11.2598C9.04898 11.2606 9.07798 11.2672 9.10488 11.2792C9.13178 11.2913 9.15605 11.3085 9.17629 11.3299C9.19654 11.3513 9.21236 11.3765 9.22286 11.404C9.23337 11.4315 9.23834 11.4608 9.2375 11.4903C9.1811 13.507 9.26112 15.3346 9.42368 15.7413C9.67737 16.3753 10.0621 16.93 11.1499 16.6969C12.1825 16.4755 12.5692 16.084 12.7414 15.0854C12.8736 14.3191 13.1351 12.1391 13.1673 11.709C13.1694 11.6796 13.1773 11.6509 13.1906 11.6246C13.2039 11.5982 13.2222 11.5748 13.2445 11.5556C13.2669 11.5363 13.2928 11.5217 13.3208 11.5125C13.3488 11.5033 13.3783 11.4997 13.4077 11.502C13.467 11.5065 13.5222 11.5343 13.561 11.5794C13.5998 11.6245 13.6191 11.6831 13.6147 11.7424C13.5811 12.1903 13.321 14.3661 13.1837 15.1617C12.9804 16.3412 12.4546 16.8761 11.2439 17.1357C11.0382 17.1797 10.8513 17.1994 10.6814 17.1995ZM4.40449 12.7219C4.30331 12.7216 4.20283 12.705 4.10693 12.6727C3.35501 12.4218 2.63881 11.1972 1.97815 9.0326C1.47528 7.38489 1.15662 5.66505 1.12864 5.10607C1.04581 3.44894 1.47246 2.27655 2.39707 1.62166C4.22618 0.32566 7.3032 1.55978 7.43328 1.61294C7.48838 1.63545 7.53229 1.67893 7.55534 1.73381C7.57839 1.78869 7.57869 1.85048 7.55618 1.90558C7.53367 1.96069 7.4902 2.00459 7.43532 2.02764C7.38044 2.05069 7.31865 2.051 7.26354 2.02849C7.23387 2.01639 4.28328 0.8343 2.65554 1.98841C1.86495 2.54894 1.502 3.59041 1.57667 5.08371C1.60015 5.55466 1.89785 7.23316 2.4072 8.90153C2.99698 10.834 3.66818 12.0534 4.24882 12.247C4.33995 12.2774 4.61726 12.3698 5.01368 11.8931C5.47596 11.3378 5.95559 10.7973 6.45185 10.2722C6.49338 10.2308 6.54946 10.2073 6.60811 10.2067C6.66675 10.2061 6.7233 10.2285 6.76564 10.2691C6.80798 10.3096 6.83276 10.3652 6.83467 10.4238C6.83658 10.4824 6.81547 10.5395 6.77585 10.5827C6.7691 10.5897 6.09424 11.2953 5.35878 12.1801C5.01045 12.599 4.6766 12.7219 4.40449 12.7219ZM14.1679 10.8312C14.1273 10.8311 14.0874 10.82 14.0525 10.7991C14.0177 10.7781 13.9892 10.748 13.9701 10.7121C13.951 10.6762 13.942 10.6357 13.9441 10.5951C13.9462 10.5545 13.9593 10.5152 13.982 10.4815C16.0722 7.37997 16.8058 3.63246 16.1775 2.82949C15.3866 1.81896 14.2699 1.29119 12.8582 1.26068C11.8129 1.23818 10.9821 1.50508 10.8462 1.55163L10.8121 1.56555C10.6755 1.60844 10.5708 1.53363 10.5312 1.44616C10.5087 1.39605 10.5053 1.33942 10.5216 1.28696C10.538 1.2345 10.573 1.18984 10.62 1.16139C10.6264 1.1576 10.647 1.14888 10.6803 1.13664C10.9111 1.05213 11.7545 0.799003 12.7992 0.810956C14.3613 0.82755 15.6517 1.42985 16.5306 2.55302C16.9464 3.08444 16.9474 4.30872 16.5333 5.91213C16.1111 7.54689 15.3167 9.30372 14.354 10.7323C14.311 10.7966 14.2401 10.8312 14.1679 10.8312ZM14.2748 12.267C13.9179 12.267 13.598 12.2166 13.4065 12.1019C13.2096 11.9839 13.172 11.8236 13.1671 11.7385C13.1134 10.7949 13.634 10.6307 13.8995 10.5557C13.8625 10.4997 13.8099 10.4339 13.7555 10.366C13.6007 10.1725 13.3886 9.90757 13.2252 9.51128C13.1996 9.44941 13.1194 9.30555 13.0266 9.13891C12.5233 8.23638 11.4761 6.35833 12.1489 5.3966C12.4602 4.95152 13.0802 4.7763 13.9937 4.87403C13.725 4.05532 12.4453 1.49425 9.40878 1.44447C8.49556 1.42928 7.74659 1.71011 7.18381 2.27838C5.92381 3.55089 5.96937 5.85335 5.97007 5.87641C5.97085 5.90586 5.96582 5.93518 5.95526 5.96269C5.9447 5.9902 5.92883 6.01536 5.90855 6.03674C5.88827 6.05812 5.86398 6.07529 5.83707 6.08728C5.81015 6.09927 5.78114 6.10584 5.75168 6.10661C5.72223 6.10739 5.69291 6.10235 5.6654 6.0918C5.63789 6.08124 5.61273 6.06537 5.59135 6.04509C5.56997 6.02481 5.5528 6.00052 5.54081 5.97361C5.52882 5.94669 5.52225 5.91768 5.52148 5.88822C5.51867 5.78599 5.4717 3.36977 6.86501 1.96253C7.51709 1.30399 8.37546 0.978863 9.41623 0.995878C11.3588 1.0278 12.6093 2.01541 13.316 2.83821C14.0865 3.73497 14.4642 4.72413 14.4953 5.05432C14.5185 5.29985 14.3423 5.34893 14.3067 5.35624L14.2257 5.35807C13.3293 5.21449 12.7541 5.31419 12.5163 5.65394C12.0046 6.38533 12.9953 8.16185 13.4183 8.92052C13.5263 9.11402 13.6042 9.25394 13.6399 9.34028C13.7788 9.67722 13.9601 9.90363 14.1057 10.0856C14.2338 10.2456 14.3447 10.3844 14.3844 10.5473C14.4028 10.5796 14.6642 10.9663 16.2154 10.6461C16.6043 10.566 16.8374 10.6345 16.9087 10.85C17.0489 11.274 16.2623 11.7686 15.8268 11.9708C15.4365 12.1522 14.8137 12.267 14.2748 12.267ZM13.6144 11.7015C13.6637 11.7512 13.9099 11.8368 14.4198 11.8149C14.8732 11.7955 15.3513 11.6969 15.6382 11.5637C16.0051 11.3933 16.25 11.2027 16.3769 11.0726L16.3066 11.0856C15.3147 11.2903 14.6132 11.2631 14.2214 11.0044C14.195 10.9871 14.1697 10.9683 14.1454 10.9481C14.103 10.9648 14.0637 10.9758 14.0358 10.9836C13.8136 11.0459 13.5838 11.1105 13.6144 11.7015ZM7.20729 12.9552C6.96092 12.9552 6.7016 12.9216 6.43681 12.8553C6.16245 12.7867 5.69993 12.5801 5.70696 12.2408C5.71498 11.8601 6.26862 11.746 6.47703 11.7031C7.22993 11.548 7.27901 11.4858 7.51428 11.187C7.5829 11.0999 7.66826 10.9915 7.7847 10.8616C7.95753 10.6681 8.14639 10.5701 8.34607 10.5701C8.48515 10.5701 8.5992 10.6172 8.67457 10.6485C8.91476 10.7481 9.11515 10.9888 9.19756 11.2767C9.27195 11.5364 9.23637 11.7865 9.09771 11.9807C8.64251 12.6181 7.98874 12.9552 7.20729 12.9552ZM6.1917 12.2601C6.25934 12.3124 6.3949 12.3823 6.54579 12.42C6.77515 12.4773 6.99762 12.5065 7.20743 12.5065C7.84671 12.5065 8.35999 12.2418 8.73279 11.7198C8.81056 11.611 8.78721 11.4727 8.7664 11.4C8.72281 11.2477 8.61453 11.1092 8.50301 11.0629C8.44254 11.0379 8.39234 11.0188 8.34621 11.0188C8.32146 11.0188 8.24609 11.0188 8.11924 11.1607C8.0317 11.2591 7.94756 11.3605 7.86696 11.4647C7.5739 11.8368 7.4396 11.9631 6.56773 12.1427C6.35496 12.1863 6.24584 12.2307 6.1917 12.2601ZM7.91703 11.2251C7.86346 11.225 7.81169 11.2058 7.77107 11.1708C7.73045 11.1359 7.70366 11.0876 7.69554 11.0347C7.68991 10.9974 7.68616 10.9599 7.68429 10.9223C7.11279 10.9116 6.5614 10.6664 6.14276 10.2296C5.61345 9.67736 5.37256 8.91222 5.48196 8.13049C5.60079 7.28153 5.55635 6.53214 5.53245 6.12953C5.52584 6.0176 5.52106 5.93674 5.52134 5.88077C5.52176 5.80975 5.52317 5.62146 6.1526 5.30238C6.37648 5.18889 6.82535 4.99089 7.31571 4.94013C8.1281 4.85618 8.6636 5.218 8.82392 5.9591C9.25662 7.95991 8.85823 8.84486 8.56728 9.49117C8.51314 9.61155 8.46195 9.72518 8.42103 9.83529L8.38489 9.93232C8.23118 10.3445 8.09829 10.7006 8.13907 10.9665C8.14355 10.9956 8.14225 11.0253 8.13523 11.0539C8.12822 11.0826 8.11564 11.1095 8.0982 11.1333C8.08077 11.157 8.05883 11.1771 8.03363 11.1924C8.00843 11.2077 7.98046 11.2178 7.95134 11.2223L7.91703 11.2251ZM5.97148 5.94292L5.9802 6.1031C6.00495 6.52132 6.05107 7.29953 5.9262 8.19278C5.83606 8.83755 6.03293 9.46685 6.46662 9.9191C6.80932 10.2766 7.26031 10.4739 7.72381 10.4739H7.73337C7.78526 10.2552 7.87146 10.0243 7.96428 9.77552L8.00014 9.67905C8.0464 9.55474 8.10054 9.43436 8.15792 9.30696C8.4379 8.68483 8.78651 7.91041 8.38503 6.05402C8.30557 5.68628 8.11278 5.47352 7.79595 5.40335C7.14514 5.25963 6.17525 5.74914 5.97148 5.94292ZM7.3257 5.84772C7.31445 5.92703 7.47096 6.13882 7.67515 6.16708C7.87892 6.19563 8.05329 6.02997 8.0644 5.95066C8.07551 5.87135 7.91914 5.78388 7.71495 5.75547C7.51076 5.72707 7.33653 5.76841 7.3257 5.84772ZM7.72198 6.24513L7.66475 6.24119C7.53818 6.22361 7.41021 6.14388 7.3226 6.02772C7.29181 5.98694 7.2416 5.90791 7.25159 5.83732C7.26579 5.73382 7.39207 5.6718 7.58909 5.6718C7.6331 5.6718 7.67895 5.67503 7.72507 5.6815C7.83279 5.69641 7.93278 5.72749 8.0066 5.76869C8.13457 5.84013 8.144 5.91986 8.13823 5.96107C8.12248 6.07539 7.94065 6.24513 7.72198 6.24513ZM7.40009 5.86094C7.40642 5.90988 7.52764 6.07132 7.68542 6.09311L7.72212 6.09564C7.86781 6.09564 7.97665 5.98103 7.98945 5.94349C7.97595 5.91789 7.88229 5.85433 7.70468 5.82958C7.66643 5.82418 7.62786 5.8214 7.58923 5.82128C7.47504 5.82128 7.41443 5.84702 7.40009 5.86094ZM13.532 5.68586C13.5432 5.76517 13.3868 5.97696 13.1827 6.00536C12.9788 6.03377 12.8043 5.86825 12.7931 5.78894C12.7824 5.70963 12.9387 5.62202 13.1427 5.59375C13.3466 5.56521 13.5208 5.60669 13.532 5.68586ZM13.1356 6.04586C12.9393 6.04586 12.7699 5.89314 12.7559 5.794C12.7398 5.67503 12.9357 5.58461 13.1373 5.55663C13.1817 5.55044 13.2258 5.54735 13.2681 5.54735C13.4422 5.54735 13.5575 5.59839 13.569 5.6808C13.5765 5.7341 13.5356 5.81636 13.4651 5.89061C13.4186 5.93941 13.3208 6.02392 13.1877 6.04235L13.1356 6.04586ZM13.2682 5.62216C13.2292 5.62216 13.1891 5.62502 13.1479 5.63074C12.9452 5.659 12.8243 5.74028 12.8302 5.78388C12.8369 5.83183 12.9663 5.97119 13.1358 5.97119L13.1775 5.96824C13.2882 5.95291 13.3713 5.88063 13.411 5.839C13.4733 5.77361 13.498 5.71202 13.4951 5.69107C13.4911 5.66322 13.4163 5.62216 13.2682 5.62216ZM13.8258 10.2407C13.7852 10.2407 13.7453 10.2297 13.7104 10.2088C13.6755 10.1879 13.647 10.1579 13.6279 10.122C13.6088 10.0861 13.5997 10.0458 13.6018 10.0052C13.6039 9.96455 13.6169 9.92528 13.6396 9.89153C14.1175 9.17786 14.03 8.45013 13.9455 7.7463C13.9093 7.44649 13.8722 7.13641 13.8818 6.83885C13.8916 6.53271 13.9306 6.28014 13.9681 6.03588C14.0127 5.74647 14.0549 5.4731 14.0374 5.14853C14.0359 5.11912 14.0401 5.08967 14.0499 5.06189C14.0597 5.0341 14.0748 5.00851 14.0945 4.98659C14.1142 4.96466 14.138 4.94683 14.1646 4.93411C14.1911 4.92138 14.22 4.91401 14.2494 4.91243C14.2788 4.91084 14.3082 4.91506 14.336 4.92485C14.3638 4.93464 14.3894 4.94981 14.4113 4.96949C14.4556 5.00923 14.4823 5.06493 14.4855 5.12435C14.5054 5.49532 14.4578 5.80469 14.4117 6.10408C14.3761 6.33513 14.3392 6.57405 14.3304 6.85319C14.3218 7.11672 14.3554 7.39657 14.391 7.69272C14.481 8.44113 14.5829 9.28938 14.0126 10.1411C13.992 10.1718 13.9642 10.1969 13.9316 10.2143C13.8991 10.2316 13.8627 10.2407 13.8258 10.2407Z" fill="white"/>
</svg>
