<svg width="40" height="40" viewBox="0 0 40 40" fill="none" xmlns="http://www.w3.org/2000/svg">
<path d="M29.3154 28.785C29.5607 26.7434 29.4872 26.4437 31.0079 26.7746L31.3938 26.8084C32.5632 26.8615 34.0929 26.6203 34.9916 26.2028C36.9263 25.305 38.0732 23.8065 36.166 24.2C31.8147 25.0978 31.5157 23.6243 31.5157 23.6243C36.1104 16.8071 38.031 8.15309 36.3729 6.03465C31.851 0.256837 24.0238 2.98902 23.8929 3.05965L23.851 3.06746C22.9913 2.88902 22.0291 2.78246 20.9482 2.76496C18.9791 2.73246 17.485 3.28121 16.3516 4.14059C16.3516 4.14059 2.38817 -1.61223 3.03786 11.3753C3.17598 14.1381 6.99786 32.2809 11.5566 26.8009C13.2229 24.7971 14.8329 23.1028 14.8329 23.1028C15.6322 23.6337 16.5897 23.905 17.5935 23.8075L17.6713 23.7412C17.6469 23.99 17.6575 24.2334 17.7022 24.5215C16.5282 25.8337 16.8732 26.064 14.5254 26.5471C12.1497 27.0365 13.5454 27.9081 14.4563 28.1359C15.561 28.4121 18.1163 28.8034 19.8432 26.3865L19.7744 26.6621C20.235 27.0309 20.2041 29.3112 20.2691 30.9403C20.3344 32.5696 20.4435 34.09 20.7757 34.9865C21.1079 35.8831 21.4997 38.1915 24.5854 37.5303C27.1641 36.979 29.1357 36.1837 29.3154 28.785Z" fill="black"/>
<path d="M23.5806 39.1426C22.2159 39.1426 21.3272 38.6148 20.7875 38.1051C19.9728 37.3363 19.6497 36.346 19.4565 35.7544L19.3731 35.5076C18.9843 34.4582 18.8525 32.9473 18.7743 31.0016C18.7625 30.7094 18.7543 30.4085 18.7453 30.0894C18.7387 29.856 18.7306 29.5632 18.7187 29.2569C18.2271 29.4914 17.7052 29.6563 17.1681 29.7469C16.2059 29.9113 15.1715 29.8582 14.0931 29.5885C13.3322 29.3982 12.5415 29.0038 12.0909 28.3948C10.7775 29.5451 9.52466 29.3891 8.84216 29.1613C7.6381 28.7598 6.5606 27.6313 5.54779 25.7123C4.82622 24.3451 4.12841 22.5638 3.47341 20.4176C2.33279 16.6801 1.6081 12.7435 1.54372 11.451C1.34122 7.40569 2.43029 4.51256 4.77997 2.85288C8.48654 0.234751 14.1025 1.77444 16.15 2.4735C17.5256 1.64444 19.144 1.241 20.9728 1.27006C21.955 1.286 22.8903 1.37225 23.759 1.52725C24.6653 1.24225 26.4553 0.833189 28.5043 0.858814C32.2797 0.903814 35.4081 2.37506 37.5509 5.1135C39.0803 7.06725 38.324 11.1701 37.7375 13.4419C36.9118 16.6376 35.4653 20.0363 33.6884 22.9951C34.1709 22.9985 34.87 22.9407 35.8637 22.7354C37.8243 22.3307 38.3978 23.3819 38.5534 23.8526C39.1768 25.7407 36.4668 27.1676 35.6215 27.5601C34.5384 28.0629 32.7725 28.3691 31.3262 28.3029L31.2631 28.2988L30.8831 28.2654L30.8456 28.5823L30.8093 28.8919C30.7122 32.6416 30.1765 35.0163 29.0743 36.5854C27.919 38.2304 26.3134 38.6913 24.899 38.9944C24.4165 39.0976 23.9781 39.1426 23.5806 39.1426ZM20.7087 25.4954C21.5897 26.2004 21.6668 27.5269 21.7359 30.006C21.7447 30.3154 21.7528 30.6082 21.7637 30.8816C21.7968 31.7098 21.8747 33.6488 22.1784 34.4682C22.2212 34.5841 22.2597 34.7016 22.3003 34.8263C22.6387 35.8626 22.8084 36.3823 24.2718 36.0694C25.5003 35.806 26.1318 35.5698 26.6262 34.866C27.3447 33.8429 27.7465 31.7848 27.8203 28.7488L29.315 28.7851L27.8306 28.6069L27.8743 28.2363C28.0165 27.0144 28.119 26.1319 28.9356 25.5482C29.5909 25.0801 30.3375 25.1254 30.9322 25.2326C30.2787 24.7388 30.0981 24.1598 30.05 23.9223L29.9253 23.3082L30.2756 22.7885C32.2934 19.7948 33.9572 16.1154 34.8409 12.6935C35.749 9.17756 35.4722 7.31038 35.1953 6.95725C31.53 2.27381 25.174 4.20756 24.5103 4.42694L24.3981 4.48756L23.8356 4.59225L23.5475 4.53256C22.7531 4.36756 21.8706 4.27631 20.9247 4.261C19.4384 4.236 18.2393 4.58725 17.2562 5.33319L16.574 5.85038L15.7825 5.52444C14.0912 4.83288 9.12372 3.44256 6.50247 5.29913C5.04747 6.32975 4.38466 8.34913 4.53216 11.3013C4.58091 12.276 5.2431 15.9657 6.3356 19.5441C7.84529 24.4894 9.21716 26.1323 9.78997 26.3232C9.88997 26.3569 10.1493 26.1554 10.4075 25.8454C11.4838 24.5552 12.5982 23.2974 13.7493 22.0735L14.615 21.1626L15.6615 21.8579C16.0834 22.1382 16.5487 22.2973 17.0265 22.3273L19.5225 20.1985L19.1609 23.8885C19.1528 23.9713 19.1487 24.0841 19.1812 24.2935L19.29 24.9929L18.8181 25.5204L18.7637 25.5816L20.135 26.2144L20.7087 25.4954Z" fill="black"/>
<path d="M36.1659 24.1999C31.8144 25.0977 31.5153 23.6243 31.5153 23.6243C36.11 16.8068 38.0306 8.15239 36.3731 6.03458C31.8512 0.257076 24.0234 2.98926 23.8928 3.0602L23.8506 3.0677C22.9909 2.88926 22.0287 2.78301 20.9472 2.76551C18.9781 2.73333 17.4847 3.28176 16.3512 4.14114C16.3512 4.14114 2.38748 -1.61136 3.03686 11.3758C3.17498 14.139 6.99686 32.2818 11.5556 26.8018C13.2219 24.798 14.8315 23.1036 14.8315 23.1036C15.6312 23.6346 16.5884 23.9058 17.5919 23.8083L17.67 23.7421C17.6456 23.9908 17.6569 24.2343 17.7012 24.5224C16.5269 25.8346 16.8719 26.0649 14.524 26.548C12.1484 27.0374 13.544 27.909 14.4553 28.1368C15.5597 28.413 18.1153 28.8043 19.8419 26.3874L19.7728 26.663C20.2331 27.0318 20.5562 29.0605 20.5022 30.8996C20.4481 32.7386 20.4115 34.0015 20.7744 34.9877C21.1369 35.974 21.4981 38.1927 24.5844 37.5315C27.1631 36.979 28.4994 35.5468 28.6856 33.158C28.8175 31.4596 29.1159 31.7108 29.135 30.1924L29.3747 29.4736C29.6509 27.1715 29.4184 26.429 31.0075 26.7743L31.3934 26.808C32.5628 26.8611 34.0931 26.6199 34.9915 26.2024C36.9259 25.3052 38.0731 23.8065 36.1659 24.1999Z" fill="#336791"/>
<path d="M23.7366 38.221C21.1641 38.221 20.3491 36.1838 20.0157 35.3507C19.5276 34.1298 19.4222 29.3916 19.531 25.506C19.5326 25.4405 19.5472 25.3759 19.5738 25.316C19.6005 25.2562 19.6388 25.2022 19.6864 25.1571C19.7341 25.1121 19.7901 25.077 19.8514 25.0537C19.9127 25.0304 19.978 25.0195 20.0435 25.0216C20.1089 25.0234 20.1734 25.0381 20.2332 25.0648C20.2929 25.0915 20.3469 25.1297 20.3919 25.1773C20.4368 25.2249 20.472 25.2808 20.4953 25.342C20.5187 25.4032 20.5297 25.4684 20.5279 25.5338C20.4026 30.0154 20.5804 34.0766 20.9416 34.9804C21.5054 36.3894 22.3604 37.6219 24.7775 37.1041C27.0722 36.6119 27.9316 35.7419 28.3144 33.5229C28.6082 31.8201 29.1891 26.9757 29.2607 26.0198C29.2655 25.9544 29.2831 25.8907 29.3126 25.8322C29.342 25.7737 29.3827 25.7216 29.4324 25.6788C29.482 25.6361 29.5396 25.6036 29.6018 25.5832C29.6641 25.5627 29.7297 25.5548 29.795 25.5598C29.9269 25.5697 30.0493 25.6316 30.1356 25.7318C30.2218 25.832 30.2648 25.9623 30.255 26.0941C30.1804 27.0894 29.6022 31.9244 29.2972 33.6926C28.8454 36.3135 27.6769 37.5023 24.9866 38.0791C24.5294 38.1769 24.1141 38.2207 23.7366 38.221ZM9.78786 28.2707C9.563 28.27 9.33972 28.233 9.12661 28.1613C7.45567 27.6038 5.86411 24.8826 4.39599 20.0723C3.27849 16.4107 2.57036 12.5888 2.50817 11.3466C2.32411 7.66412 3.27224 5.05881 5.32692 3.6035C9.39161 0.723498 16.2294 3.466 16.5185 3.58412C16.6409 3.63414 16.7385 3.73076 16.7897 3.85271C16.841 3.97467 16.8416 4.11198 16.7916 4.23444C16.7416 4.35689 16.645 4.45446 16.523 4.50568C16.4011 4.5569 16.2638 4.55758 16.1413 4.50756C16.0754 4.48069 9.51849 1.85381 5.9013 4.4185C4.14442 5.66412 3.33786 7.9785 3.5038 11.2969C3.55599 12.3435 4.21755 16.0735 5.34942 19.781C6.66005 24.0754 8.15161 26.7851 9.44192 27.2154C9.64442 27.2829 10.2607 27.4882 11.1416 26.4288C12.1689 25.195 13.2347 23.9938 14.3375 22.8269C14.4298 22.7349 14.5545 22.6826 14.6848 22.6813C14.8151 22.68 14.9408 22.7298 15.0349 22.82C15.1289 22.9101 15.184 23.0336 15.1883 23.1638C15.1925 23.2941 15.1456 23.4208 15.0575 23.5169C15.0425 23.5326 13.5429 25.1004 11.9085 27.0666C11.1344 27.9976 10.3925 28.2707 9.78786 28.2707ZM31.4844 24.0691C31.394 24.069 31.3054 24.0443 31.2279 23.9977C31.1505 23.9511 31.0871 23.8843 31.0447 23.8045C31.0023 23.7247 30.9823 23.6348 30.987 23.5445C30.9917 23.4542 31.0208 23.3669 31.0713 23.2919C35.716 16.3997 37.3463 8.07194 35.95 6.28756C34.1925 4.04194 31.711 2.86912 28.5738 2.80131C26.251 2.75131 24.4047 3.34444 24.1029 3.44787L24.0269 3.47881C23.7235 3.57412 23.4907 3.40787 23.4029 3.2135C23.3528 3.10213 23.3452 2.9763 23.3815 2.85972C23.4179 2.74315 23.4956 2.6439 23.6 2.58069C23.6144 2.57225 23.66 2.55287 23.7341 2.52569C24.2469 2.33787 26.1213 1.77537 28.4429 1.80194C31.9141 1.83881 34.7816 3.17725 36.7347 5.67319C37.6588 6.85412 37.661 9.57475 36.7407 13.1379C35.8025 16.7707 34.0372 20.6748 31.8979 23.8494C31.8022 23.9923 31.6447 24.0691 31.4844 24.0691ZM31.7219 27.2598C30.9288 27.2598 30.2179 27.1479 29.7922 26.8929C29.3547 26.6307 29.2713 26.2744 29.2604 26.0854C29.141 23.9885 30.2979 23.6235 30.8879 23.4569C30.8057 23.3326 30.6888 23.1863 30.5679 23.0354C30.2238 22.6054 29.7525 22.0166 29.3894 21.136C29.3325 20.9985 29.1544 20.6788 28.9482 20.3085C27.8297 18.3029 25.5025 14.1294 26.9975 11.9922C27.6894 11.0032 29.0672 10.6138 31.0972 10.831C30.5 9.01162 27.6563 3.32037 20.9085 3.20975C18.8791 3.176 17.2147 3.80006 15.9641 5.06287C13.1641 7.89069 13.2654 13.0072 13.2669 13.0585C13.2686 13.124 13.2575 13.1891 13.234 13.2502C13.2105 13.3114 13.1753 13.3673 13.1302 13.4148C13.0852 13.4623 13.0312 13.5005 12.9714 13.5271C12.9115 13.5537 12.8471 13.5683 12.7816 13.5701C12.7162 13.5718 12.651 13.5606 12.5899 13.5371C12.5287 13.5137 12.4728 13.4784 12.4253 13.4334C12.3778 13.3883 12.3397 13.3343 12.313 13.2745C12.2864 13.2147 12.2718 13.1502 12.27 13.0847C12.2638 12.8576 12.1594 7.48819 15.2557 4.361C16.7047 2.89756 18.6122 2.17506 20.925 2.21287C25.2419 2.28381 28.0207 4.4785 29.5913 6.30694C31.3035 8.29975 32.1429 10.4979 32.2119 11.2316C32.2635 11.7772 31.8719 11.8863 31.7929 11.9026L31.6129 11.9066C29.6207 11.5876 28.3425 11.8091 27.8141 12.5641C26.6769 14.1894 28.8785 18.1372 29.8185 19.8232C30.0585 20.2532 30.2316 20.5641 30.311 20.756C30.6197 21.5047 31.0225 22.0079 31.346 22.4123C31.6307 22.7679 31.8772 23.0763 31.9654 23.4382C32.0063 23.5101 32.5872 24.3694 36.0344 23.6579C36.8985 23.4798 37.4166 23.6319 37.575 24.111C37.8866 25.0532 36.1385 26.1523 35.1707 26.6016C34.3035 27.0048 32.9194 27.2598 31.7219 27.2598ZM30.2544 26.0032C30.3638 26.1135 30.911 26.3038 32.0441 26.2551C33.0516 26.2119 34.1141 25.9929 34.7516 25.6969C35.5669 25.3182 36.1113 24.8948 36.3932 24.6057L36.2369 24.6344C34.0329 25.0894 32.4738 25.0288 31.6032 24.4541C31.5446 24.4155 31.4883 24.3737 31.4344 24.3288C31.34 24.366 31.2529 24.3904 31.1907 24.4079C30.6969 24.5463 30.1863 24.6898 30.2544 26.0032ZM16.0163 28.7891C15.4688 28.7891 14.8925 28.7144 14.3041 28.5673C13.6944 28.4148 12.6666 27.9557 12.6822 27.2016C12.7 26.3557 13.9304 26.1019 14.3935 26.0066C16.0666 25.6619 16.1757 25.5238 16.6985 24.8598C16.851 24.6663 17.0407 24.4254 17.2994 24.1366C17.6835 23.7066 18.1032 23.4888 18.5469 23.4888C18.856 23.4888 19.1094 23.5935 19.2769 23.6632C19.8107 23.8844 20.256 24.4194 20.4391 25.0591C20.6044 25.6363 20.5254 26.1919 20.2172 26.6235C19.2057 28.0401 17.7529 28.7891 16.0163 28.7891ZM13.7594 27.2444C13.9097 27.3607 14.211 27.516 14.5463 27.5998C15.056 27.7273 15.5504 27.7919 16.0166 27.7919C17.4372 27.7919 18.5779 27.2038 19.4063 26.0438C19.5791 25.8019 19.5272 25.4948 19.481 25.3332C19.3841 24.9948 19.1435 24.6869 18.8957 24.5841C18.7613 24.5285 18.6497 24.486 18.5472 24.486C18.4922 24.486 18.3247 24.486 18.0429 24.8013C17.8483 25.0201 17.6613 25.2454 17.4822 25.4769C16.831 26.3038 16.5325 26.5844 14.595 26.9835C14.1222 27.0804 13.8797 27.1791 13.7594 27.2444ZM17.5935 24.9444C17.4745 24.9442 17.3594 24.9015 17.2691 24.8239C17.1789 24.7463 17.1193 24.639 17.1013 24.5213C17.0888 24.4386 17.0804 24.3552 17.0763 24.2716C15.8063 24.2479 14.581 23.7029 13.6507 22.7322C12.4744 21.5051 11.9391 19.8048 12.1822 18.0676C12.4463 16.181 12.3475 14.5157 12.2944 13.621C12.2797 13.3722 12.2691 13.1926 12.2697 13.0682C12.2707 12.9104 12.2738 12.4919 13.6725 11.7829C14.17 11.5307 15.1675 11.0907 16.2572 10.9779C18.0625 10.7913 19.2525 11.5954 19.6088 13.2422C20.5704 17.6885 19.685 19.6551 19.0385 21.0913C18.9182 21.3588 18.8044 21.6113 18.7135 21.856L18.6332 22.0716C18.2916 22.9876 17.9963 23.7788 18.0869 24.3698C18.0969 24.4345 18.094 24.5005 18.0784 24.5641C18.0628 24.6277 18.0348 24.6876 17.9961 24.7404C17.9574 24.7932 17.9086 24.8378 17.8526 24.8718C17.7966 24.9057 17.7345 24.9283 17.6697 24.9382L17.5935 24.9444ZM13.27 13.2063L13.2894 13.5622C13.3444 14.4916 13.4469 16.221 13.1694 18.206C12.9691 19.6388 13.4066 21.0373 14.3704 22.0423C15.1319 22.8366 16.1341 23.2751 17.1641 23.2751H17.1854C17.3007 22.7891 17.4922 22.276 17.6985 21.7232L17.7782 21.5088C17.881 21.2326 18.0013 20.9651 18.1288 20.6819C18.751 19.2994 19.5257 17.5785 18.6335 13.4532C18.4569 12.636 18.0285 12.1632 17.3244 12.0072C15.8782 11.6879 13.7229 12.7757 13.27 13.2063ZM16.2794 12.9947C16.2544 13.171 16.6022 13.6416 17.056 13.7044C17.5088 13.7679 17.8963 13.3997 17.921 13.2235C17.9457 13.0472 17.5982 12.8529 17.1444 12.7897C16.6907 12.7266 16.3035 12.8185 16.2794 12.9947ZM17.16 13.8779L17.0329 13.8691C16.7516 13.8301 16.4672 13.6529 16.2725 13.3947C16.2041 13.3041 16.0925 13.1285 16.1147 12.9716C16.1463 12.7416 16.4269 12.6038 16.8647 12.6038C16.9625 12.6038 17.0644 12.611 17.1669 12.6254C17.4063 12.6585 17.6285 12.7276 17.7925 12.8191C18.0769 12.9779 18.0979 13.1551 18.085 13.2466C18.05 13.5007 17.646 13.8779 17.16 13.8779ZM16.4447 13.0241C16.4588 13.1329 16.7282 13.4916 17.0788 13.5401L17.1604 13.5457C17.4841 13.5457 17.726 13.291 17.7544 13.2076C17.7244 13.1507 17.5163 13.0094 17.1216 12.9544C17.0366 12.9424 16.9509 12.9363 16.865 12.936C16.6113 12.936 16.4766 12.9932 16.4447 13.0241ZM30.0713 12.6351C30.096 12.8113 29.7485 13.2819 29.2951 13.3451C28.8419 13.4082 28.4541 13.0404 28.4291 12.8641C28.4054 12.6879 28.7529 12.4932 29.206 12.4304C29.6591 12.3669 30.0463 12.4591 30.0713 12.6351ZM29.1904 13.4351C28.7541 13.4351 28.3775 13.0957 28.3466 12.8754C28.3107 12.611 28.746 12.4101 29.1941 12.3479C29.2929 12.3341 29.3907 12.3272 29.4847 12.3272C29.8716 12.3272 30.1279 12.4407 30.1535 12.6238C30.17 12.7422 30.0791 12.9251 29.9225 13.0901C29.8191 13.1985 29.6019 13.3863 29.306 13.4272L29.1904 13.4351ZM29.485 12.4935C29.3984 12.4935 29.3092 12.4999 29.2175 12.5126C28.7672 12.5754 28.4985 12.756 28.5116 12.8529C28.5266 12.9594 28.8141 13.2691 29.1907 13.2691L29.2835 13.2626C29.5294 13.2285 29.7141 13.0679 29.8022 12.9754C29.9407 12.8301 29.9957 12.6932 29.9891 12.6466C29.9804 12.5847 29.8141 12.4935 29.485 12.4935ZM30.7241 22.7569C30.6338 22.757 30.5451 22.7325 30.4676 22.686C30.3902 22.6396 30.3268 22.5729 30.2843 22.4932C30.2418 22.4135 30.2217 22.3237 30.2263 22.2335C30.2309 22.1433 30.26 22.056 30.3104 21.981C31.3722 20.3951 31.1779 18.7779 30.99 17.2138C30.9097 16.5476 30.8272 15.8585 30.8485 15.1972C30.8704 14.5169 30.9569 13.9557 31.0404 13.4129C31.1394 12.7697 31.2332 12.1622 31.1944 11.441C31.1909 11.3756 31.2003 11.3102 31.222 11.2484C31.2438 11.1867 31.2775 11.1298 31.3212 11.0811C31.365 11.0324 31.4179 10.9928 31.4769 10.9645C31.5359 10.9362 31.6 10.9198 31.6654 10.9163C31.7307 10.9128 31.7962 10.9222 31.8579 10.9439C31.9197 10.9657 31.9765 10.9994 32.0252 11.0431C32.1236 11.1314 32.1829 11.2552 32.1901 11.3872C32.2344 12.2116 32.1285 12.8991 32.026 13.5644C31.9469 14.0779 31.865 14.6088 31.8454 15.2291C31.8263 15.8147 31.901 16.4366 31.98 17.0947C32.18 18.7579 32.4066 20.6429 31.1391 22.5357C31.0934 22.6038 31.0316 22.6596 30.9592 22.6982C30.8869 22.7367 30.8061 22.7569 30.7241 22.7569Z" fill="white"/>
</svg>
