<svg width="40" height="40" viewBox="0 0 40 40" fill="none" xmlns="http://www.w3.org/2000/svg">
<path d="M19.8306 0.0113525C9.70061 0.0113525 10.3331 4.42155 10.3331 4.42155L10.3444 8.99065H20.0112V10.3624H6.50483C6.50483 10.3624 0.022644 9.62437 0.022644 19.8855C0.022644 30.147 5.68046 29.7831 5.68046 29.7831H9.05702V25.0214C9.05702 25.0214 8.87499 19.3414 14.6245 19.3414H24.2123C24.2123 19.3414 29.5991 19.4288 29.5991 14.1149V5.32869C29.5991 5.32869 30.4172 0.0113525 19.8306 0.0113525ZM14.5003 3.08398C14.7287 3.08377 14.955 3.12879 15.1661 3.21646C15.3771 3.30412 15.5689 3.43272 15.7305 3.59488C15.892 3.75704 16.0201 3.94958 16.1074 4.1615C16.1947 4.37341 16.2396 4.60053 16.2394 4.82986C16.2396 5.05919 16.1947 5.28631 16.1074 5.49823C16.0201 5.71014 15.892 5.90269 15.7305 6.06485C15.5689 6.22701 15.3771 6.3556 15.1661 6.44327C14.955 6.53093 14.7287 6.57595 14.5003 6.57574C14.2719 6.57595 14.0456 6.53093 13.8345 6.44327C13.6235 6.3556 13.4317 6.22701 13.2701 6.06485C13.1086 5.90269 12.9805 5.71014 12.8932 5.49823C12.8059 5.28631 12.761 5.05919 12.7612 4.82986C12.761 4.60053 12.8059 4.37341 12.8932 4.1615C12.9805 3.94958 13.1086 3.75704 13.2701 3.59488C13.4317 3.43272 13.6235 3.30412 13.8345 3.21646C14.0456 3.12879 14.2719 3.08377 14.5003 3.08398Z" fill="url(#paint0_linear_2313_116)"/>
<path d="M20.1183 39.863C30.2483 39.863 29.6158 35.4528 29.6158 35.4528L29.6045 30.8838H19.9375V29.5121H33.4439C33.4439 29.5121 39.9261 30.2501 39.9261 19.9886C39.9261 9.72727 34.2683 10.0912 34.2683 10.0912H30.8917V14.8528C30.8917 14.8528 31.0737 20.5328 25.3242 20.5328H15.7364C15.7364 20.5328 10.3497 20.4454 10.3497 25.7594V34.5458C10.3497 34.5458 9.53171 39.863 20.1181 39.863M25.4484 36.7906C25.22 36.7909 24.9938 36.7458 24.7827 36.6582C24.5716 36.5705 24.3798 36.4419 24.2183 36.2798C24.0567 36.1176 23.9286 35.925 23.8413 35.7131C23.754 35.5012 23.7092 35.2741 23.7094 35.0448C23.7091 34.8154 23.754 34.5883 23.8413 34.3764C23.9286 34.1644 24.0567 33.9719 24.2182 33.8097C24.3797 33.6475 24.5715 33.5189 24.7826 33.4312C24.9937 33.3435 25.22 33.2985 25.4484 33.2987C25.6769 33.2985 25.9031 33.3435 26.1142 33.4312C26.3253 33.5189 26.5171 33.6475 26.6786 33.8096C26.8401 33.9718 26.9682 34.1643 27.0555 34.3762C27.1429 34.5882 27.1877 34.8153 27.1875 35.0446C27.1877 35.2739 27.1429 35.5011 27.0555 35.713C26.9682 35.9249 26.8401 36.1174 26.6786 36.2796C26.5171 36.4418 26.3253 36.5703 26.1142 36.658C25.9031 36.7457 25.6769 36.7909 25.4484 36.7906Z" fill="url(#paint1_linear_2313_116)"/>
<defs>
<linearGradient id="paint0_linear_2313_116" x1="383.493" y1="358.453" x2="2368.65" y2="2316.13" gradientUnits="userSpaceOnUse">
<stop stop-color="#387EB8"/>
<stop offset="1" stop-color="#366994"/>
</linearGradient>
<linearGradient id="paint1_linear_2313_116" x1="576.353" y1="622.796" x2="2707.8" y2="2629.85" gradientUnits="userSpaceOnUse">
<stop stop-color="#FFE052"/>
<stop offset="1" stop-color="#FFC331"/>
</linearGradient>
</defs>
</svg>
