<svg width="26" height="26" viewBox="0 0 26 26" fill="none" xmlns="http://www.w3.org/2000/svg">
<path d="M13 9.75C19.0482 9.75 22.75 11.8544 22.75 13C22.75 14.1456 19.0482 16.25 13 16.25C6.95175 16.25 3.25 14.1456 3.25 13C3.25 11.8544 6.95175 9.75 13 9.75ZM13 8.125C6.71775 8.125 1.625 10.3074 1.625 13C1.625 15.6926 6.71775 17.875 13 17.875C19.2822 17.875 24.375 15.6926 24.375 13C24.375 10.3074 19.2822 8.125 13 8.125Z" fill="#00BCD4"/>
<path d="M13 11.375C12.6786 11.375 12.3644 11.4703 12.0972 11.6489C11.83 11.8274 11.6217 12.0812 11.4987 12.3781C11.3757 12.6751 11.3435 13.0018 11.4062 13.317C11.4689 13.6322 11.6237 13.9218 11.851 14.149C12.0782 14.3763 12.3678 14.5311 12.683 14.5938C12.9982 14.6565 13.3249 14.6243 13.6219 14.5013C13.9188 14.3783 14.1726 14.17 14.3511 13.9028C14.5297 13.6356 14.625 13.3214 14.625 13C14.625 12.569 14.4538 12.1557 14.149 11.851C13.8443 11.5462 13.431 11.375 13 11.375Z" fill="#00BCD4"/>
<path d="M8.49708 4.47443C10.1359 4.47443 13.3209 7.05574 15.8145 11.375C18.8386 16.6132 18.867 20.8707 17.875 21.4435C17.7605 21.5028 17.6324 21.5309 17.5036 21.5247C15.8648 21.5247 12.679 18.9442 10.1855 14.625C7.16133 9.3868 7.13289 5.1293 8.12496 4.55649C8.23964 4.49701 8.36804 4.46816 8.49708 4.47443ZM8.49627 2.85024C8.08219 2.84275 7.67358 2.94567 7.31246 3.14843C4.98058 4.49474 5.63708 9.99699 8.77821 15.4375C11.4465 20.0606 15.0507 23.1506 17.5045 23.1506C17.9184 23.1574 18.3267 23.0539 18.6875 22.8507C21.0193 21.5052 20.3628 16.003 17.2217 10.5625C14.5535 5.93936 10.9492 2.84943 8.49546 2.84943L8.49627 2.85024Z" fill="#00BCD4"/>
<path d="M17.5037 4.47445C17.6325 4.46833 17.7606 4.49636 17.875 4.5557C18.8671 5.12933 18.8386 9.38683 15.8145 14.625C13.3201 18.9443 10.1351 21.5256 8.49633 21.5256C8.36756 21.5317 8.23946 21.5037 8.12502 21.4443C7.13296 20.8699 7.16139 16.6124 10.1855 11.375C12.6799 7.05577 15.8649 4.47445 17.5037 4.47445ZM17.5037 2.84945C15.05 2.84945 11.4465 5.9402 8.77746 10.5625C5.63796 16.003 4.98064 21.5053 7.31252 22.8508C7.67348 23.0541 8.0821 23.1576 8.49633 23.1506C10.9501 23.1506 14.5535 20.0598 17.2226 15.4375C20.3621 9.99702 21.0194 4.49477 18.6875 3.14927C18.3266 2.94594 17.9179 2.84246 17.5037 2.84945Z" fill="#00BCD4"/>
</svg>
