<svg width="26" height="26" viewBox="0 0 26 26" fill="none" xmlns="http://www.w3.org/2000/svg">
<path d="M20.2 20.2C22.851 20.2 25 15.9019 25 10.6C25 5.29807 22.851 1 20.2 1C17.5491 1 15.4 5.29807 15.4 10.6C15.4 15.9019 17.5491 20.2 20.2 20.2Z" stroke="black" stroke-width="1.5" stroke-linecap="round" stroke-linejoin="round"/>
<path d="M20.2 1C16.4764 1 8.758 3.8536 4.3252 5.6248C2.2948 6.436 1 8.4136 1 10.6C1 12.7864 2.296 14.764 4.3252 15.5752C8.758 17.3464 16.4764 20.2 20.2 20.2M11.8 25L9.4684 23.716C8.22362 23.0271 7.21391 21.9809 6.56963 20.7124C5.92536 19.444 5.67608 18.0115 5.854 16.6" stroke="black" stroke-width="1.5" stroke-linecap="round" stroke-linejoin="round"/>
</svg>
